# xmcd
#
# Track frame offsets:
#	150
#	13987
#	27525
#	31370
#	55597
#	78072
#	84392
#
# Disc length: 1485 seconds
#
# Revision: 1
# Processed by: cddbd v1.5.1PL2 Copyright (c) Steve Scherf et al.
# Submitted via: EasyCDDAExtractor 5.0.6
#
DISCID=4805cb07
DTITLE=Okkervil River - Black Sheep Boy Appendix
DYEAR=2005
DGENRE=Indie
TTITLE0=Missing Children
TTITLE1=No Key, No Plan
TTITLE2=A Garden
TTITLE3=Black Sheep Boy #4
TTITLE4=Another Radio Song
TTITLE5=A Forest
TTITLE6=Last Love Song For Now
EXTD=
EXTT0=
EXTT1=
EXTT2=
EXTT3=
EXTT4=
EXTT5=
EXTT6=
PLAYORDER=
